<svg width="12" height="13" viewBox="0 0 12 13" fill="none" xmlns="http://www.w3.org/2000/svg">
<path id="Vector" d="M9.08765 4.87535H6.2572V6.29735C6.2572 7.30544 5.65573 8.12562 4.91646 8.12562C4.1772 8.12562 3.57573 7.30544 3.57573 6.29735V3.20959L2.3672 4.1999C2.00781 4.49192 1.78808 5.02263 1.78808 5.59143V6.7925L0.298367 7.96565C0.0134597 8.18911 -0.0852336 8.6868 0.0804966 9.07531L1.57021 12.5948C1.73407 12.9833 2.09905 13.1153 2.38396 12.8918L4.30941 11.3759H6.85309C7.51042 11.3759 8.04485 10.6471 8.04485 9.75076H8.3428C8.67239 9.75076 8.93868 9.38765 8.93868 8.93819V7.31306H9.08765C9.33531 7.31306 9.53456 7.04135 9.53456 6.70363V5.48478C9.53456 5.14705 9.33531 4.87535 9.08765 4.87535ZM11.838 3.92566L10.3483 0.406223C10.1844 0.0177139 9.81947 -0.114328 9.53456 0.109128L7.60911 1.62508H5.70601C5.48255 1.62508 5.26468 1.71141 5.07475 1.87139L4.45093 2.40209C4.27589 2.54937 4.17161 2.81092 4.17161 3.09024V6.29735C4.17161 6.85853 4.50493 7.31306 4.91646 7.31306C5.328 7.31306 5.66132 6.85853 5.66132 6.29735V4.06278H9.08765C9.66305 4.06278 10.1304 4.70014 10.1304 5.48478V6.20847L11.6202 5.03533C11.9051 4.80933 12.0019 4.31417 11.838 3.92566Z" fill="white"/>
</svg>
