<?xml version="1.0" encoding="UTF-8" standalone="no"?>
<!DOCTYPE svg PUBLIC "-//W3C//DTD SVG 1.1//EN" "http://www.w3.org/Graphics/SVG/1.1/DTD/svg11.dtd">
<svg width="100%" height="100%" viewBox="0 0 18 19" version="1.1" xmlns="http://www.w3.org/2000/svg" xmlns:xlink="http://www.w3.org/1999/xlink" xml:space="preserve" xmlns:serif="http://www.serif.com/" style="fill-rule:evenodd;clip-rule:evenodd;stroke-linejoin:round;stroke-miterlimit:2;">
    <path id="store" d="M17.591,4.437L15.695,0.812C15.525,0.487 15.224,0.288 14.903,0.288L3.096,0.288C2.775,0.288 2.474,0.487 2.304,0.812L0.407,4.437C-0.572,6.309 0.296,8.911 2.126,9.209C2.257,9.23 2.392,9.24 2.526,9.24C3.391,9.24 4.157,8.786 4.683,8.082C5.209,8.786 5.978,9.24 6.84,9.24C7.705,9.24 8.47,8.786 8.997,8.082C9.523,8.786 10.291,9.24 11.153,9.24C12.018,9.24 12.784,8.786 13.31,8.082C13.839,8.786 14.605,9.24 15.467,9.24C15.604,9.24 15.736,9.23 15.867,9.209C17.702,8.915 18.573,6.312 17.591,4.437ZM15.473,10.363C15.18,10.363 14.891,10.311 14.611,10.23L14.611,13.722L3.388,13.722L3.388,10.23C3.108,10.307 2.818,10.363 2.526,10.363C2.351,10.363 2.173,10.349 2,10.321C1.837,10.293 1.676,10.248 1.521,10.195L1.521,17.081C1.521,17.7 1.939,18.2 2.456,18.2L15.549,18.2C16.066,18.2 16.484,17.7 16.484,17.081L16.484,10.195C16.326,10.251 16.168,10.297 16.005,10.321C15.826,10.349 15.651,10.363 15.473,10.363Z" style="fill:white;fill-rule:nonzero;"/>
</svg>
