<svg width="11" height="13" viewBox="0 0 11 13" fill="none" xmlns="http://www.w3.org/2000/svg">
<path id="Vector" d="M5.49736 0.386461C5.51851 0.505797 5.92308 2.78587 5.92308 3.65676C5.92308 4.98469 5.18798 5.93176 4.1012 6.31262L4.44231 12.3581C4.46082 12.706 4.1726 13.0005 3.80769 13.0005H2.11538C1.75313 13.0005 1.46226 12.7085 1.48077 12.3581L1.82188 6.31262C0.732452 5.93176 0 4.98215 0 3.65676C0 2.78333 0.404567 0.505797 0.425721 0.386461C0.510337 -0.128967 1.62356 -0.136584 1.69231 0.414391V3.99954C1.72668 4.08587 2.09159 4.08079 2.11538 3.99954C2.1524 3.35716 2.32428 0.465172 2.32692 0.399156C2.41418 -0.128967 3.50889 -0.128967 3.59351 0.399156C3.5988 0.467711 3.76803 3.35716 3.80505 3.99954C3.82885 4.08079 4.19639 4.08587 4.22813 3.99954V0.414391C4.29688 -0.134045 5.41274 -0.128967 5.49736 0.386461ZM8.64928 7.64054L8.25264 12.3403C8.22091 12.6958 8.51442 13.0005 8.88462 13.0005H10.3654C10.7171 13.0005 11 12.7288 11 12.3911V0.609898C11 0.274743 10.7171 0.000524571 10.3654 0.000524571C8.18389 0.000524571 4.51106 4.53274 8.64928 7.64054Z" fill="white"/>
</svg>
