<?xml version="1.0" encoding="UTF-8" standalone="no"?>
<!DOCTYPE svg PUBLIC "-//W3C//DTD SVG 1.1//EN" "http://www.w3.org/Graphics/SVG/1.1/DTD/svg11.dtd">
<svg width="100%" height="100%" viewBox="0 0 16 17" version="1.1" xmlns="http://www.w3.org/2000/svg" xmlns:xlink="http://www.w3.org/1999/xlink" xml:space="preserve" xmlns:serif="http://www.serif.com/" style="fill-rule:evenodd;clip-rule:evenodd;stroke-linejoin:round;stroke-miterlimit:2;">
    <path id="list-ul" d="M1.5,0.21C1.203,0.21 0.913,0.317 0.667,0.519C0.42,0.721 0.228,1.008 0.114,1.344C0.001,1.679 -0.029,2.049 0.029,2.405C0.087,2.762 0.23,3.089 0.439,3.346C0.649,3.603 0.916,3.778 1.207,3.849C1.498,3.92 1.8,3.883 2.074,3.744C2.348,3.605 2.582,3.37 2.747,3.067C2.912,2.765 3,2.41 3,2.047C3,1.56 2.842,1.092 2.561,0.748C2.279,0.403 1.898,0.21 1.5,0.21ZM1.5,6.334C1.203,6.334 0.913,6.441 0.667,6.643C0.42,6.845 0.228,7.132 0.114,7.468C0.001,7.803 -0.029,8.173 0.029,8.529C0.087,8.886 0.23,9.213 0.439,9.47C0.649,9.727 0.916,9.902 1.207,9.973C1.498,10.044 1.8,10.007 2.074,9.868C2.348,9.729 2.582,9.494 2.747,9.191C2.912,8.889 3,8.534 3,8.171C3,7.683 2.842,7.216 2.561,6.872C2.279,6.527 1.898,6.334 1.5,6.334ZM1.5,12.458C1.203,12.458 0.913,12.565 0.667,12.767C0.42,12.969 0.228,13.256 0.114,13.592C0.001,13.927 -0.029,14.297 0.029,14.653C0.087,15.009 0.23,15.337 0.439,15.594C0.649,15.851 0.916,16.026 1.207,16.096C1.498,16.167 1.8,16.131 2.074,15.992C2.348,15.853 2.582,15.617 2.747,15.315C2.912,15.013 3,14.658 3,14.295C3,13.807 2.842,13.34 2.561,12.996C2.279,12.651 1.898,12.458 1.5,12.458ZM15.5,13.07L5.5,13.07C5.367,13.07 5.24,13.134 5.146,13.249C5.053,13.364 5,13.52 5,13.682L5,14.907C5,15.07 5.053,15.225 5.146,15.34C5.24,15.455 5.367,15.519 5.5,15.519L15.5,15.519C15.633,15.519 15.76,15.455 15.854,15.34C15.947,15.225 16,15.07 16,14.907L16,13.682C16,13.52 15.947,13.364 15.854,13.249C15.76,13.134 15.633,13.07 15.5,13.07ZM15.5,0.822L5.5,0.822C5.367,0.822 5.24,0.887 5.146,1.001C5.053,1.116 5,1.272 5,1.434L5,2.659C5,2.822 5.053,2.977 5.146,3.092C5.24,3.207 5.367,3.272 5.5,3.272L15.5,3.272C15.633,3.272 15.76,3.207 15.854,3.092C15.947,2.977 16,2.822 16,2.659L16,1.434C16,1.272 15.947,1.116 15.854,1.001C15.76,0.887 15.633,0.822 15.5,0.822ZM15.5,6.946L5.5,6.946C5.367,6.946 5.24,7.01 5.146,7.125C5.053,7.24 5,7.396 5,7.558L5,8.783C5,8.946 5.053,9.101 5.146,9.216C5.24,9.331 5.367,9.395 5.5,9.395L15.5,9.395C15.633,9.395 15.76,9.331 15.854,9.216C15.947,9.101 16,8.946 16,8.783L16,7.558C16,7.396 15.947,7.24 15.854,7.125C15.76,7.01 15.633,6.946 15.5,6.946Z" style="fill:rgb(126,126,126);fill-rule:nonzero;"/>
</svg>
