<?xml version="1.0" encoding="UTF-8" standalone="no"?>
<!DOCTYPE svg PUBLIC "-//W3C//DTD SVG 1.1//EN" "http://www.w3.org/Graphics/SVG/1.1/DTD/svg11.dtd">
<svg width="100%" height="100%" viewBox="0 0 200 35" version="1.1" xmlns="http://www.w3.org/2000/svg" xmlns:xlink="http://www.w3.org/1999/xlink" xml:space="preserve" xmlns:serif="http://www.serif.com/" style="fill-rule:evenodd;clip-rule:evenodd;stroke-linejoin:round;stroke-miterlimit:2;">
    <path d="M13.88,7.731C17.218,7.731 19.672,8.406 21.243,9.756C22.838,11.106 23.636,12.873 23.636,15.058C23.636,15.794 23.538,16.616 23.341,17.525C22.875,19.537 22.004,21.304 20.728,22.826C19.451,24.323 17.88,25.489 16.015,26.324C14.174,27.134 12.174,27.539 10.014,27.539C6.602,27.539 4.074,26.863 2.43,25.514C0.81,24.139 0,22.323 0,20.065C0,19.304 0.098,18.457 0.295,17.525C0.761,15.61 1.644,13.916 2.945,12.444C4.271,10.947 5.878,9.793 7.768,8.983C9.683,8.149 11.72,7.731 13.88,7.731ZM13.769,11.008C13.254,11.008 12.702,11.474 12.113,12.407C11.548,13.315 10.873,15.046 10.088,17.598C9.302,20.151 8.91,21.942 8.91,22.973C8.91,23.513 8.995,23.881 9.167,24.078C9.339,24.25 9.572,24.336 9.867,24.336C10.382,24.385 10.91,23.943 11.45,23.01C12.014,22.077 12.714,20.261 13.548,17.561C14.309,15.181 14.69,13.45 14.69,12.37C14.69,11.855 14.604,11.499 14.432,11.303C14.285,11.106 14.064,11.008 13.769,11.008ZM45.642,22.127C45.593,22.225 45.568,22.372 45.568,22.568C45.568,22.74 45.605,22.875 45.679,22.973C45.777,23.072 45.899,23.121 46.047,23.121C46.341,23.121 46.587,22.998 46.783,22.752C47.004,22.482 47.151,22.347 47.225,22.347C47.347,22.347 47.446,22.433 47.519,22.605C47.593,22.752 47.63,22.937 47.63,23.157C47.654,23.869 47.421,24.569 46.93,25.256C46.439,25.919 45.715,26.471 44.758,26.913C43.825,27.33 42.696,27.539 41.371,27.539C39.751,27.539 38.463,27.17 37.505,26.434C36.548,25.673 36.057,24.667 36.033,23.415C36.033,22.507 36.254,21.488 36.695,20.359L38.72,15.058C38.843,14.739 38.904,14.481 38.904,14.285C38.904,13.966 38.794,13.72 38.573,13.548C38.377,13.352 38.131,13.254 37.837,13.254C37.37,13.254 36.892,13.475 36.401,13.916C35.935,14.334 35.554,15.021 35.26,15.978L35.26,15.905L32.94,23.378C32.867,23.673 32.83,23.93 32.83,24.151C32.83,24.471 32.891,24.728 33.014,24.924C33.137,25.096 33.308,25.268 33.529,25.44C33.701,25.612 33.824,25.759 33.897,25.882C33.971,25.98 33.983,26.115 33.934,26.287C33.811,26.606 33.566,26.839 33.198,26.986C32.83,27.134 32.265,27.207 31.504,27.207L23.11,27.207C22.472,27.207 22.006,27.109 21.711,26.913C21.417,26.692 21.319,26.41 21.417,26.066C21.515,25.771 21.773,25.514 22.19,25.293C22.558,25.096 22.865,24.863 23.11,24.593C23.356,24.323 23.564,23.894 23.736,23.305L29.332,4.933C29.406,4.712 29.443,4.528 29.443,4.381C29.443,4.111 29.369,3.89 29.222,3.718C29.099,3.547 28.927,3.375 28.706,3.203C28.461,3.007 28.277,2.835 28.154,2.688C28.056,2.54 28.044,2.344 28.117,2.099C28.265,1.534 29.038,1.043 30.437,0.626C31.836,0.209 33.296,0 34.818,0C36.241,0 37.284,0.27 37.947,0.81C38.634,1.35 38.978,2.086 38.978,3.019C38.978,3.559 38.892,4.087 38.72,4.602L36.732,11.082C37.689,9.83 38.696,8.959 39.751,8.468C40.831,7.977 41.997,7.731 43.249,7.731C44.746,7.731 45.949,8.185 46.857,9.094C47.789,10.002 48.256,11.18 48.256,12.628C48.256,13.389 48.133,14.137 47.888,14.874L45.642,22.127ZM84.224,22.127C84.175,22.225 84.15,22.372 84.15,22.568C84.15,22.74 84.187,22.875 84.26,22.973C84.359,23.072 84.481,23.121 84.629,23.121C84.923,23.121 85.169,22.998 85.365,22.752C85.586,22.482 85.733,22.347 85.807,22.347C85.929,22.347 86.028,22.433 86.101,22.605C86.175,22.752 86.212,22.937 86.212,23.157C86.236,23.869 86.003,24.569 85.512,25.256C85.021,25.919 84.297,26.471 83.34,26.913C82.407,27.33 81.278,27.539 79.953,27.539C78.333,27.539 77.044,27.17 76.087,26.434C75.13,25.673 74.639,24.667 74.615,23.415C74.615,22.507 74.835,21.488 75.277,20.359L77.302,15.058C77.425,14.739 77.486,14.481 77.486,14.285C77.486,13.966 77.376,13.72 77.155,13.548C76.959,13.352 76.713,13.254 76.419,13.254C76.001,13.254 75.572,13.438 75.13,13.806C74.688,14.174 74.296,14.751 73.952,15.536L71.927,22.127C71.878,22.225 71.853,22.372 71.853,22.568C71.853,22.74 71.89,22.875 71.964,22.973C72.062,23.072 72.185,23.121 72.332,23.121C72.626,23.121 72.872,22.998 73.068,22.752C73.289,22.482 73.436,22.347 73.51,22.347C73.633,22.347 73.731,22.433 73.805,22.605C73.878,22.752 73.915,22.937 73.915,23.157C73.94,23.869 73.706,24.569 73.216,25.256C72.725,25.919 72.001,26.471 71.043,26.913C70.111,27.33 68.982,27.539 67.656,27.539C66.036,27.539 64.748,27.17 63.791,26.434C62.833,25.673 62.343,24.667 62.318,23.415C62.318,22.507 62.539,21.488 62.981,20.359L65.006,15.058C65.128,14.739 65.19,14.481 65.19,14.285C65.19,13.966 65.079,13.72 64.858,13.548C64.662,13.352 64.417,13.254 64.122,13.254C63.705,13.254 63.275,13.438 62.833,13.806C62.392,14.15 62.023,14.714 61.729,15.5L59.299,23.378C59.201,23.648 59.152,23.906 59.152,24.151C59.152,24.446 59.213,24.691 59.336,24.888C59.459,25.06 59.63,25.244 59.851,25.44C60.023,25.587 60.146,25.722 60.219,25.845C60.293,25.968 60.305,26.115 60.256,26.287C60.158,26.606 59.925,26.839 59.557,26.986C59.189,27.134 58.612,27.207 57.826,27.207L49.432,27.207C48.794,27.207 48.34,27.109 48.07,26.913C47.776,26.692 47.665,26.41 47.739,26.066C47.837,25.771 48.095,25.514 48.512,25.293C48.88,25.096 49.187,24.863 49.432,24.593C49.678,24.323 49.886,23.894 50.058,23.305L53.335,12.665C53.384,12.542 53.408,12.37 53.408,12.149C53.408,11.879 53.347,11.671 53.224,11.524C53.126,11.376 52.954,11.192 52.709,10.971C52.464,10.775 52.292,10.603 52.194,10.456C52.095,10.309 52.083,10.112 52.157,9.867C52.304,9.302 53.077,8.811 54.476,8.394C55.875,7.952 57.336,7.731 58.857,7.731C60.06,7.731 61.005,8.063 61.692,8.725C62.404,9.388 62.748,10.296 62.723,11.45C63.729,10.051 64.785,9.081 65.889,8.541C67.018,8.001 68.233,7.731 69.534,7.731C70.958,7.731 72.111,8.149 72.995,8.983C73.903,9.793 74.406,10.861 74.504,12.186C75.56,10.517 76.689,9.364 77.891,8.725C79.094,8.063 80.407,7.731 81.831,7.731C83.328,7.731 84.53,8.185 85.439,9.094C86.371,10.002 86.838,11.18 86.838,12.628C86.838,13.389 86.715,14.137 86.469,14.874L84.224,22.127ZM106.942,7.731C108.022,7.731 108.881,8.173 109.519,9.057C110.182,9.916 110.513,11.094 110.513,12.591C110.513,13.892 110.28,15.291 109.814,16.788C108.906,19.807 107.445,22.654 105.433,25.33C103.445,28.005 101.15,30.152 98.548,31.772C95.971,33.392 93.394,34.202 90.817,34.202C89.54,34.202 88.436,33.981 87.503,33.539C86.595,33.098 85.908,32.509 85.442,31.772C84.951,31.036 84.705,30.251 84.705,29.416C84.705,29.048 84.767,28.643 84.889,28.201C85.11,27.514 85.479,26.986 85.994,26.618C86.509,26.25 87.123,26.066 87.835,26.066C88.964,26.066 89.884,26.446 90.596,27.207C91.332,27.993 91.799,29.06 91.995,30.41C93.566,30.337 95.014,29.662 96.339,28.385C95.088,28.164 94.155,27.747 93.541,27.134C92.952,26.495 92.547,25.514 92.326,24.188L90.854,15.168C90.78,14.702 90.67,14.383 90.522,14.211C90.4,14.015 90.228,13.916 90.007,13.916C89.835,13.916 89.626,14.002 89.381,14.174C89.16,14.346 89.001,14.432 88.902,14.432C88.706,14.432 88.608,14.223 88.608,13.806C88.608,13.462 88.669,13.094 88.792,12.702C89.234,11.303 90.056,10.124 91.259,9.167C92.461,8.185 93.86,7.695 95.456,7.695C97.027,7.695 98.18,8.161 98.916,9.094C99.677,10.026 100.168,11.462 100.389,13.401L101.493,21.501C101.567,22.114 101.788,22.421 102.156,22.421C102.598,22.421 103.113,22.028 103.702,21.243C104.292,20.433 104.868,19.292 105.433,17.819C104.697,17.156 104.132,16.395 103.739,15.536C103.347,14.677 103.15,13.757 103.15,12.775C103.15,12.014 103.248,11.327 103.445,10.714C103.739,9.732 104.193,8.995 104.807,8.505C105.445,7.989 106.157,7.731 106.942,7.731ZM125.281,0C127.907,0 129.871,0.405 131.172,1.215C132.497,2 133.16,2.97 133.16,4.123C133.16,5.056 132.767,5.78 131.982,6.296C131.221,6.786 130.214,7.032 128.963,7.032C127.809,7.032 126.913,6.75 126.275,6.185C125.637,5.621 125.318,4.921 125.318,4.087C125.318,3.571 125.477,3.031 125.796,2.467C125.06,2.467 124.447,2.651 123.956,3.019C123.465,3.363 123.084,3.964 122.814,4.823C122.667,5.363 122.593,5.866 122.593,6.332C122.593,6.921 122.692,7.388 122.888,7.731C123.109,8.05 123.416,8.21 123.808,8.21L125.981,8.21C127.257,8.21 127.895,8.603 127.895,9.388C127.895,9.486 127.87,9.634 127.821,9.83C127.674,10.37 127.367,10.775 126.901,11.045C126.459,11.315 125.784,11.45 124.876,11.45L123.772,11.45L120.127,23.378C120.053,23.673 120.016,23.93 120.016,24.151C120.016,24.471 120.078,24.728 120.2,24.924C120.323,25.096 120.495,25.268 120.716,25.44C120.888,25.612 121.01,25.759 121.084,25.882C121.158,25.98 121.17,26.115 121.121,26.287C120.998,26.606 120.753,26.839 120.384,26.986C120.016,27.134 119.452,27.207 118.691,27.207L110.297,27.207C109.659,27.207 109.192,27.109 108.898,26.913C108.603,26.692 108.505,26.41 108.603,26.066C108.702,25.771 108.959,25.514 109.376,25.293C109.745,25.096 110.051,24.863 110.297,24.593C110.542,24.323 110.751,23.894 110.923,23.305L113.794,13.88C113.917,13.512 113.978,13.131 113.978,12.738C113.978,12.248 113.868,11.867 113.647,11.597C113.451,11.303 113.144,10.984 112.727,10.64C112.457,10.419 112.248,10.235 112.101,10.088C111.978,9.916 111.917,9.719 111.917,9.499C111.892,9.032 112.052,8.701 112.395,8.505C112.764,8.308 113.451,8.21 114.457,8.21L115.378,8.21C115.206,7.596 115.12,6.983 115.12,6.369C115.12,5.756 115.23,5.117 115.451,4.455C115.917,3.203 116.912,2.148 118.433,1.289C119.98,0.43 122.262,0 125.281,0ZM139.824,7.731C143.162,7.731 145.616,8.406 147.187,9.756C148.783,11.106 149.58,12.873 149.58,15.058C149.58,15.794 149.482,16.616 149.286,17.525C148.819,19.537 147.948,21.304 146.672,22.826C145.396,24.323 143.825,25.489 141.959,26.324C140.119,27.134 138.118,27.539 135.958,27.539C132.547,27.539 130.019,26.863 128.374,25.514C126.754,24.139 125.944,22.323 125.944,20.065C125.944,19.304 126.042,18.457 126.239,17.525C126.705,15.61 127.589,13.916 128.89,12.444C130.215,10.947 131.823,9.793 133.713,8.983C135.627,8.149 137.664,7.731 139.824,7.731ZM139.714,11.008C139.198,11.008 138.646,11.474 138.057,12.407C137.492,13.315 136.817,15.046 136.032,17.598C135.247,20.151 134.854,21.942 134.854,22.973C134.854,23.513 134.94,23.881 135.112,24.078C135.283,24.25 135.517,24.336 135.811,24.336C136.326,24.385 136.854,23.943 137.394,23.01C137.959,22.077 138.658,20.261 139.493,17.561C140.254,15.181 140.634,13.45 140.634,12.37C140.634,11.855 140.548,11.499 140.376,11.303C140.229,11.106 140.008,11.008 139.714,11.008ZM163.985,7.731C167.323,7.731 169.777,8.406 171.348,9.756C172.943,11.106 173.741,12.873 173.741,15.058C173.741,15.794 173.643,16.616 173.446,17.525C172.98,19.537 172.109,21.304 170.832,22.826C169.556,24.323 167.985,25.489 166.12,26.324C164.279,27.134 162.279,27.539 160.119,27.539C156.707,27.539 154.179,26.863 152.535,25.514C150.915,24.139 150.105,22.323 150.105,20.065C150.105,19.304 150.203,18.457 150.399,17.525C150.866,15.61 151.749,13.916 153.05,12.444C154.376,10.947 155.983,9.793 157.873,8.983C159.788,8.149 161.825,7.731 163.985,7.731ZM163.874,11.008C163.359,11.008 162.806,11.474 162.217,12.407C161.653,13.315 160.978,15.046 160.193,17.598C159.407,20.151 159.014,21.942 159.014,22.973C159.014,23.513 159.1,23.881 159.272,24.078C159.444,24.25 159.677,24.336 159.972,24.336C160.487,24.385 161.015,23.943 161.555,23.01C162.119,22.077 162.819,20.261 163.653,17.561C164.414,15.181 164.795,13.45 164.795,12.37C164.795,11.855 164.709,11.499 164.537,11.303C164.39,11.106 164.169,11.008 163.874,11.008ZM194.478,21.906C194.428,22.102 194.404,22.237 194.404,22.311C194.404,22.482 194.453,22.617 194.551,22.716C194.649,22.814 194.772,22.863 194.919,22.863C195.214,22.863 195.459,22.74 195.656,22.495C195.877,22.225 196.024,22.09 196.098,22.09C196.22,22.09 196.318,22.176 196.392,22.347C196.466,22.519 196.502,22.716 196.502,22.937C196.527,23.599 196.269,24.274 195.729,24.961C195.214,25.649 194.514,26.213 193.631,26.655C192.747,27.097 191.79,27.318 190.759,27.318C189.532,27.318 188.464,27.084 187.556,26.618C186.648,26.152 186.022,25.538 185.679,24.777C185.016,25.636 184.255,26.275 183.396,26.692C182.537,27.109 181.629,27.318 180.672,27.318C179.542,27.318 178.487,27.035 177.505,26.471C176.548,25.906 175.775,25.109 175.186,24.078C174.621,23.022 174.339,21.832 174.339,20.507C174.339,18.273 174.756,16.175 175.591,14.211C176.45,12.223 177.64,10.628 179.162,9.425C180.684,8.198 182.414,7.584 184.353,7.584C185.409,7.584 186.304,7.707 187.041,7.952C187.802,8.198 188.489,8.566 189.102,9.057L190.354,4.933C190.428,4.712 190.465,4.528 190.465,4.381C190.465,4.111 190.391,3.89 190.244,3.718C190.121,3.547 189.949,3.375 189.728,3.203C189.483,3.007 189.299,2.835 189.176,2.688C189.078,2.54 189.066,2.344 189.139,2.099C189.287,1.534 190.06,1.043 191.459,0.626C192.858,0.209 194.318,0 195.84,0C197.263,0 198.306,0.27 198.969,0.81C199.656,1.35 200,2.086 200,3.019C200,3.559 199.914,4.087 199.742,4.602L194.478,21.906ZM188.329,11.56C187.937,11.217 187.507,11.045 187.041,11.045C186.329,11.045 185.629,11.573 184.942,12.628C184.255,13.683 183.703,14.96 183.285,16.457C182.868,17.954 182.672,19.304 182.696,20.507C182.696,21.857 183.138,22.532 184.022,22.532C184.341,22.532 184.611,22.409 184.832,22.163C185.053,21.893 185.261,21.464 185.458,20.875L188.329,11.56Z" style="fill:white;"/>
</svg>
