<svg width="200" height="35" viewBox="0 0 200 35" fill="none" xmlns="http://www.w3.org/2000/svg">
<path d="M13.8797 7.73139C17.2177 7.73139 19.6721 8.40635 21.2429 9.75628C22.8383 11.1062 23.636 12.8734 23.636 15.0578C23.636 15.7941 23.5378 16.6164 23.3414 17.5245C22.8751 19.5371 22.0038 21.3043 20.7275 22.826C19.4512 24.3232 17.8804 25.489 16.015 26.3235C14.1742 27.1335 12.1739 27.5385 10.014 27.5385C6.60236 27.5385 4.07432 26.8635 2.42987 25.5136C0.809955 24.1391 0 22.3229 0 20.0648C0 19.3039 0.0981764 18.4572 0.294529 17.5245C0.760867 15.61 1.64445 13.9165 2.94529 12.4439C4.27067 10.9467 5.87831 9.7931 7.76821 8.98314C9.68265 8.14864 11.7198 7.73139 13.8797 7.73139ZM13.7692 11.008C13.2538 11.008 12.7016 11.4744 12.1125 12.407C11.548 13.3152 10.873 15.0455 10.0876 17.5981C9.30221 20.1507 8.90951 21.9424 8.90951 22.9733C8.90951 23.5132 8.99541 23.8814 9.16722 24.0778C9.33903 24.2496 9.5722 24.3355 9.86673 24.3355C10.3822 24.3846 10.9099 23.9428 11.4498 23.0101C12.0143 22.0774 12.7138 20.2612 13.5483 17.5613C14.3092 15.1805 14.6896 13.4502 14.6896 12.3702C14.6896 11.8548 14.6037 11.4989 14.4319 11.3026C14.2847 11.1062 14.0638 11.008 13.7692 11.008Z" fill="#101010"/>
<path d="M45.6417 22.1265C45.5926 22.2247 45.568 22.3719 45.568 22.5683C45.568 22.7401 45.6049 22.8751 45.6785 22.9733C45.7767 23.0715 45.8994 23.1205 46.0466 23.1205C46.3412 23.1205 46.5866 22.9978 46.783 22.7524C47.0039 22.4824 47.1511 22.3474 47.2248 22.3474C47.3475 22.3474 47.4457 22.4333 47.5193 22.6051C47.5929 22.7524 47.6297 22.9365 47.6297 23.1574C47.6543 23.8691 47.4211 24.5686 46.9302 25.2559C46.4394 25.9186 45.7153 26.4708 44.7581 26.9126C43.8254 27.3299 42.6964 27.5385 41.371 27.5385C39.7511 27.5385 38.4625 27.1703 37.5053 26.434C36.5481 25.6731 36.0572 24.6668 36.0327 23.4151C36.0327 22.5069 36.2536 21.4884 36.6953 20.3593L38.7202 15.0578C38.843 14.7387 38.9043 14.481 38.9043 14.2847C38.9043 13.9656 38.7939 13.7202 38.573 13.5483C38.3766 13.352 38.1312 13.2538 37.8367 13.2538C37.3703 13.2538 36.8917 13.4747 36.4008 13.9165C35.9345 14.3338 35.554 15.021 35.2595 15.9782V15.9046L32.9401 23.3783C32.8665 23.6728 32.8297 23.9305 32.8297 24.1514C32.8297 24.4705 32.891 24.7282 33.0137 24.9245C33.1365 25.0963 33.3083 25.2682 33.5292 25.44C33.701 25.6118 33.8237 25.759 33.8973 25.8818C33.971 25.9799 33.9832 26.1149 33.9341 26.2867C33.8114 26.6058 33.566 26.839 33.1978 26.9862C32.8297 27.1335 32.2651 27.2071 31.5043 27.2071H23.1102C22.472 27.2071 22.0057 27.109 21.7112 26.9126C21.4166 26.6917 21.3185 26.4095 21.4166 26.0658C21.5148 25.7713 21.7725 25.5136 22.1898 25.2927C22.5579 25.0963 22.8647 24.8632 23.1102 24.5932C23.3556 24.3232 23.5643 23.8937 23.7361 23.3046L29.3321 4.93336C29.4058 4.71247 29.4426 4.52839 29.4426 4.38112C29.4426 4.11114 29.3689 3.89024 29.2217 3.71843C29.0989 3.54662 28.9271 3.37481 28.7062 3.20301C28.4608 3.00665 28.2767 2.83484 28.154 2.68758C28.0558 2.54031 28.0436 2.34396 28.1172 2.09852C28.2645 1.53401 29.0376 1.04312 30.4366 0.625873C31.8356 0.208624 33.296 0 34.8177 0C36.2413 0 37.2844 0.269985 37.9471 0.809956C38.6343 1.34993 38.978 2.08625 38.978 3.01892C38.978 3.55889 38.892 4.08659 38.7202 4.60202L36.7322 11.0817C37.6894 9.82991 38.6957 8.9586 39.7511 8.46772C40.831 7.97683 41.9969 7.73139 43.2486 7.73139C44.7458 7.73139 45.9485 8.18546 46.8566 9.09359C47.7893 10.0017 48.2556 11.1798 48.2556 12.6279C48.2556 13.3888 48.1329 14.1374 47.8875 14.8737L45.6417 22.1265Z" fill="#101010"/>
<path d="M84.2236 22.1265C84.1745 22.2247 84.1499 22.3719 84.1499 22.5683C84.1499 22.7401 84.1868 22.8751 84.2604 22.9733C84.3586 23.0715 84.4813 23.1205 84.6285 23.1205C84.9231 23.1205 85.1685 22.9978 85.3649 22.7524C85.5858 22.4824 85.733 22.3474 85.8067 22.3474C85.9294 22.3474 86.0276 22.4333 86.1012 22.6051C86.1748 22.7524 86.2116 22.9365 86.2116 23.1574C86.2362 23.8691 86.003 24.5686 85.5121 25.2559C85.0212 25.9186 84.2972 26.4708 83.34 26.9126C82.4073 27.3299 81.2783 27.5385 79.9529 27.5385C78.333 27.5385 77.0444 27.1703 76.0872 26.434C75.13 25.6731 74.6391 24.6668 74.6145 23.4151C74.6145 22.5069 74.8354 21.4884 75.2772 20.3593L77.3021 15.0578C77.4249 14.7387 77.4862 14.481 77.4862 14.2847C77.4862 13.9656 77.3758 13.7202 77.1549 13.5483C76.9585 13.352 76.7131 13.2538 76.4185 13.2538C76.0013 13.2538 75.5718 13.4379 75.13 13.8061C74.6882 14.1742 74.2955 14.751 73.9519 15.5364L71.927 22.1265C71.8779 22.2247 71.8533 22.3719 71.8533 22.5683C71.8533 22.7401 71.8902 22.8751 71.9638 22.9733C72.062 23.0715 72.1847 23.1205 72.3319 23.1205C72.6265 23.1205 72.8719 22.9978 73.0683 22.7524C73.2892 22.4824 73.4364 22.3474 73.5101 22.3474C73.6328 22.3474 73.731 22.4333 73.8046 22.6051C73.8782 22.7524 73.915 22.9365 73.915 23.1574C73.9396 23.8691 73.7064 24.5686 73.2155 25.2559C72.7246 25.9186 72.0006 26.4708 71.0434 26.9126C70.1107 27.3299 68.9817 27.5385 67.6563 27.5385C66.0364 27.5385 64.7478 27.1703 63.7906 26.434C62.8334 25.6731 62.3425 24.6668 62.318 23.4151C62.318 22.5069 62.5388 21.4884 62.9806 20.3593L65.0055 15.0578C65.1283 14.7387 65.1896 14.481 65.1896 14.2847C65.1896 13.9656 65.0792 13.7202 64.8583 13.5483C64.6619 13.352 64.4165 13.2538 64.1219 13.2538C63.7047 13.2538 63.2752 13.4379 62.8334 13.8061C62.3916 14.1497 62.0234 14.7142 61.7289 15.4996L59.299 23.3783C59.2009 23.6482 59.1518 23.906 59.1518 24.1514C59.1518 24.4459 59.2131 24.6914 59.3358 24.8877C59.4586 25.0595 59.6304 25.2436 59.8513 25.44C60.0231 25.5872 60.1458 25.7222 60.2194 25.8449C60.2931 25.9677 60.3053 26.1149 60.2562 26.2867C60.1581 26.6058 59.9249 26.839 59.5567 26.9862C59.1886 27.1335 58.6118 27.2071 57.8264 27.2071H49.4323C48.7942 27.2071 48.3401 27.109 48.0701 26.9126C47.7756 26.6917 47.6651 26.4095 47.7388 26.0658C47.8369 25.7713 48.0946 25.5136 48.5119 25.2927C48.8801 25.0963 49.1869 24.8632 49.4323 24.5932C49.6777 24.3232 49.8864 23.8937 50.0582 23.3046L53.3348 12.6648C53.3839 12.542 53.4084 12.3702 53.4084 12.1493C53.4084 11.8793 53.3471 11.6707 53.2244 11.5235C53.1262 11.3762 52.9544 11.1921 52.7089 10.9712C52.4635 10.7749 52.2917 10.6031 52.1935 10.4558C52.0953 10.3085 52.0831 10.1122 52.1567 9.86673C52.304 9.30221 53.0771 8.81133 54.4761 8.39408C55.8751 7.95229 57.3355 7.73139 58.8572 7.73139C60.0599 7.73139 61.0048 8.06274 61.6921 8.72543C62.4039 9.38812 62.7475 10.2962 62.7229 11.4498C63.7292 10.0508 64.7846 9.08132 65.8891 8.54135C67.0181 8.00138 68.2331 7.73139 69.5339 7.73139C70.9575 7.73139 72.1111 8.14864 72.9946 8.98314C73.9028 9.7931 74.4059 10.8608 74.5041 12.1861C75.5595 10.5171 76.6885 9.36357 77.8912 8.72543C79.0938 8.06274 80.407 7.73139 81.8305 7.73139C83.3277 7.73139 84.5304 8.18546 85.4385 9.09359C86.3712 10.0017 86.8375 11.1798 86.8375 12.6279C86.8375 13.3888 86.7148 14.1374 86.4694 14.8737L84.2236 22.1265Z" fill="#101010"/>
<path d="M106.942 7.73139C108.022 7.73139 108.881 8.17319 109.519 9.05677C110.182 9.91582 110.513 11.0939 110.513 12.5911C110.513 13.892 110.28 15.291 109.814 16.7882C108.906 19.8071 107.445 22.6542 105.433 25.3295C103.445 28.0048 101.15 30.1524 98.5482 31.7723C95.9711 33.3923 93.394 34.2022 90.8168 34.2022C89.5405 34.2022 88.436 33.9813 87.5034 33.5395C86.5952 33.0977 85.908 32.5087 85.4417 31.7723C84.9508 31.036 84.7053 30.2506 84.7053 29.4161C84.7053 29.0479 84.7667 28.643 84.8894 28.2012C85.1103 27.5139 85.4785 26.9862 85.9939 26.6181C86.5093 26.2499 87.1229 26.0658 87.8347 26.0658C88.9637 26.0658 89.8841 26.4463 90.5959 27.2071C91.3322 27.9925 91.7986 29.0602 91.9949 30.4101C93.5658 30.3365 95.0139 29.6615 96.3392 28.3853C95.0875 28.1644 94.1548 27.7471 93.5412 27.1335C92.9521 26.4954 92.5472 25.5136 92.3263 24.1882L90.8536 15.1683C90.78 14.7019 90.6696 14.3828 90.5223 14.211C90.3996 14.0147 90.2278 13.9165 90.0069 13.9165C89.8351 13.9165 89.6264 14.0024 89.381 14.1742C89.1601 14.346 89.0006 14.4319 88.9024 14.4319C88.706 14.4319 88.6078 14.2233 88.6078 13.8061C88.6078 13.4624 88.6692 13.0943 88.7919 12.7016C89.2337 11.3026 90.056 10.1244 91.2586 9.16722C92.4613 8.18546 93.8603 7.69458 95.4557 7.69458C97.0265 7.69458 98.18 8.16091 98.9164 9.09359C99.6772 10.0263 100.168 11.4621 100.389 13.4011L101.493 21.5006C101.567 22.1142 101.788 22.421 102.156 22.421C102.598 22.421 103.113 22.0283 103.702 21.2429C104.292 20.433 104.868 19.2917 105.433 17.819C104.697 17.1563 104.132 16.3955 103.739 15.5364C103.347 14.6774 103.15 13.757 103.15 12.7752C103.15 12.0143 103.248 11.3271 103.445 10.7135C103.739 9.73174 104.193 8.99541 104.807 8.50453C105.445 7.9891 106.157 7.73139 106.942 7.73139Z" fill="#101010"/>
<path d="M125.281 0C127.907 0 129.871 0.404978 131.172 1.21493C132.497 2.00034 133.16 2.96984 133.16 4.12341C133.16 5.05608 132.767 5.78014 131.982 6.29556C131.221 6.78644 130.214 7.03188 128.963 7.03188C127.809 7.03188 126.913 6.74963 126.275 6.18511C125.637 5.6206 125.318 4.92109 125.318 4.08659C125.318 3.57117 125.477 3.0312 125.796 2.46668C125.06 2.46668 124.447 2.65076 123.956 3.01892C123.465 3.36254 123.084 3.96387 122.814 4.82292C122.667 5.36289 122.593 5.86604 122.593 6.33238C122.593 6.92144 122.692 7.38777 122.888 7.73139C123.109 8.05046 123.416 8.21 123.808 8.21H125.981C127.257 8.21 127.895 8.60271 127.895 9.38812C127.895 9.4863 127.87 9.63356 127.821 9.82991C127.674 10.3699 127.367 10.7749 126.901 11.0448C126.459 11.3148 125.784 11.4498 124.876 11.4498H123.772L120.127 23.3783C120.053 23.6728 120.016 23.9305 120.016 24.1514C120.016 24.4705 120.078 24.7282 120.2 24.9245C120.323 25.0963 120.495 25.2682 120.716 25.44C120.888 25.6118 121.01 25.759 121.084 25.8818C121.158 25.9799 121.17 26.1149 121.121 26.2867C120.998 26.6058 120.753 26.839 120.384 26.9862C120.016 27.1335 119.452 27.2071 118.691 27.2071H110.297C109.659 27.2071 109.192 27.109 108.898 26.9126C108.603 26.6917 108.505 26.4095 108.603 26.0658C108.702 25.7713 108.959 25.5136 109.376 25.2927C109.745 25.0963 110.051 24.8632 110.297 24.5932C110.542 24.3232 110.751 23.8937 110.923 23.3046L113.794 13.8797C113.917 13.5115 113.978 13.1311 113.978 12.7384C113.978 12.2475 113.868 11.8671 113.647 11.5971C113.451 11.3026 113.144 10.9835 112.727 10.6399C112.457 10.419 112.248 10.2349 112.101 10.0876C111.978 9.91582 111.917 9.71946 111.917 9.49857C111.892 9.03223 112.052 8.70088 112.395 8.50453C112.764 8.30818 113.451 8.21 114.457 8.21H115.378C115.206 7.5964 115.12 6.9828 115.12 6.36919C115.12 5.75559 115.23 5.11744 115.451 4.45475C115.917 3.20301 116.912 2.14761 118.433 1.28856C119.98 0.429521 122.262 0 125.281 0Z" fill="#101010"/>
<path d="M139.824 7.73139C143.162 7.73139 145.616 8.40635 147.187 9.75628C148.783 11.1062 149.58 12.8734 149.58 15.0578C149.58 15.7941 149.482 16.6164 149.286 17.5245C148.819 19.5371 147.948 21.3043 146.672 22.826C145.396 24.3232 143.825 25.489 141.959 26.3235C140.119 27.1335 138.118 27.5385 135.958 27.5385C132.547 27.5385 130.019 26.8635 128.374 25.5136C126.754 24.1391 125.944 22.3229 125.944 20.0648C125.944 19.3039 126.042 18.4572 126.239 17.5245C126.705 15.61 127.589 13.9165 128.89 12.4439C130.215 10.9467 131.823 9.7931 133.713 8.98314C135.627 8.14864 137.664 7.73139 139.824 7.73139ZM139.714 11.008C139.198 11.008 138.646 11.4744 138.057 12.407C137.492 13.3152 136.817 15.0455 136.032 17.5981C135.247 20.1507 134.854 21.9424 134.854 22.9733C134.854 23.5132 134.94 23.8814 135.112 24.0778C135.283 24.2496 135.517 24.3355 135.811 24.3355C136.326 24.3846 136.854 23.9428 137.394 23.0101C137.959 22.0774 138.658 20.2612 139.493 17.5613C140.254 15.1805 140.634 13.4502 140.634 12.3702C140.634 11.8548 140.548 11.4989 140.376 11.3026C140.229 11.1062 140.008 11.008 139.714 11.008Z" fill="#101010"/>
<path d="M163.985 7.73139C167.323 7.73139 169.777 8.40635 171.348 9.75628C172.943 11.1062 173.741 12.8734 173.741 15.0578C173.741 15.7941 173.643 16.6164 173.446 17.5245C172.98 19.5371 172.109 21.3043 170.832 22.826C169.556 24.3232 167.985 25.489 166.12 26.3235C164.279 27.1335 162.279 27.5385 160.119 27.5385C156.707 27.5385 154.179 26.8635 152.535 25.5136C150.915 24.1391 150.105 22.3229 150.105 20.0648C150.105 19.3039 150.203 18.4572 150.399 17.5245C150.866 15.61 151.749 13.9165 153.05 12.4439C154.376 10.9467 155.983 9.7931 157.873 8.98314C159.788 8.14864 161.825 7.73139 163.985 7.73139ZM163.874 11.008C163.359 11.008 162.806 11.4744 162.217 12.407C161.653 13.3152 160.978 15.0455 160.193 17.5981C159.407 20.1507 159.014 21.9424 159.014 22.9733C159.014 23.5132 159.1 23.8814 159.272 24.0778C159.444 24.2496 159.677 24.3355 159.972 24.3355C160.487 24.3846 161.015 23.9428 161.555 23.0101C162.119 22.0774 162.819 20.2612 163.653 17.5613C164.414 15.1805 164.795 13.4502 164.795 12.3702C164.795 11.8548 164.709 11.4989 164.537 11.3026C164.39 11.1062 164.169 11.008 163.874 11.008Z" fill="#101010"/>
<path d="M194.478 21.9056C194.428 22.102 194.404 22.237 194.404 22.3106C194.404 22.4824 194.453 22.6174 194.551 22.7156C194.649 22.8137 194.772 22.8628 194.919 22.8628C195.214 22.8628 195.459 22.7401 195.656 22.4947C195.877 22.2247 196.024 22.0897 196.098 22.0897C196.22 22.0897 196.318 22.1756 196.392 22.3474C196.466 22.5192 196.502 22.7156 196.502 22.9365C196.527 23.5992 196.269 24.2741 195.729 24.9614C195.214 25.6486 194.514 26.2131 193.631 26.6549C192.747 27.0967 191.79 27.3176 190.759 27.3176C189.532 27.3176 188.464 27.0844 187.556 26.6181C186.648 26.1517 186.022 25.5381 185.679 24.7773C185.016 25.6363 184.255 26.2745 183.396 26.6917C182.537 27.109 181.629 27.3176 180.672 27.3176C179.542 27.3176 178.487 27.0353 177.505 26.4708C176.548 25.9063 175.775 25.1086 175.186 24.0778C174.621 23.0224 174.339 21.832 174.339 20.5066C174.339 18.2731 174.756 16.1746 175.591 14.211C176.45 12.223 177.64 10.6276 179.162 9.42494C180.684 8.19773 182.414 7.58413 184.353 7.58413C185.409 7.58413 186.304 7.70685 187.041 7.95229C187.802 8.19773 188.489 8.56589 189.102 9.05677L190.354 4.93336C190.428 4.71247 190.465 4.52839 190.465 4.38112C190.465 4.11114 190.391 3.89024 190.244 3.71843C190.121 3.54662 189.949 3.37481 189.728 3.20301C189.483 3.00665 189.299 2.83484 189.176 2.68758C189.078 2.54031 189.066 2.34396 189.139 2.09852C189.287 1.53401 190.06 1.04312 191.459 0.625873C192.858 0.208624 194.318 0 195.84 0C197.263 0 198.306 0.269985 198.969 0.809956C199.656 1.34993 200 2.08625 200 3.01892C200 3.55889 199.914 4.08659 199.742 4.60202L194.478 21.9056ZM188.329 11.5603C187.937 11.2167 187.507 11.0448 187.041 11.0448C186.329 11.0448 185.629 11.5725 184.942 12.6279C184.255 13.6833 183.703 14.9596 183.285 16.4568C182.868 17.954 182.672 19.3039 182.696 20.5066C182.696 21.8565 183.138 22.5315 184.022 22.5315C184.341 22.5315 184.611 22.4088 184.832 22.1633C185.053 21.8933 185.261 21.4638 185.458 20.8748L188.329 11.5603Z" fill="#101010"/>
</svg>
